<svg width="30" height="42" viewBox="0 0 30 42" fill="none" xmlns="http://www.w3.org/2000/svg">
<path d="M5.55205 34.5C4.83892 34.5 4.2353 34.2528 3.74118 33.7584C3.24706 33.2641 3 32.6601 3 31.9467V13.0413C3 12.3278 3.24706 11.7238 3.74118 11.2295C4.2353 10.7351 4.83892 10.4879 5.55205 10.4879H7.50682V8.58648C7.50682 8.27684 7.61045 8.01834 7.8177 7.81099C8.02492 7.60366 8.28329 7.5 8.59279 7.5C8.90228 7.5 9.16064 7.60366 9.36789 7.81099C9.57511 8.01834 9.67872 8.27684 9.67872 8.58648V10.4879H20.3756V8.55932C20.3756 8.25873 20.4769 8.00702 20.6796 7.80421C20.8823 7.6014 21.1339 7.5 21.4343 7.5C21.7348 7.5 21.9864 7.6014 22.1891 7.80421C22.3918 8.00702 22.4932 8.25873 22.4932 8.55932V10.4879H24.4479C25.1611 10.4879 25.7647 10.7351 26.2588 11.2295C26.7529 11.7238 27 12.3278 27 13.0413V31.9467C27 32.6601 26.7529 33.2641 26.2588 33.7584C25.7647 34.2528 25.1611 34.5 24.4479 34.5H5.55205ZM5.55205 32.3813H24.4479C24.5566 32.3813 24.6561 32.336 24.7466 32.2455C24.8371 32.1549 24.8824 32.0553 24.8824 31.9467V18.6912H5.11762V31.9467C5.11762 32.0553 5.16286 32.1549 5.25336 32.2455C5.34388 32.336 5.44344 32.3813 5.55205 32.3813ZM5.11762 16.5725H24.8824V13.0413C24.8824 12.9326 24.8371 12.833 24.7466 12.7424C24.6561 12.6519 24.5566 12.6066 24.4479 12.6066H5.55205C5.44344 12.6066 5.34388 12.6519 5.25336 12.7424C5.16286 12.833 5.11762 12.9326 5.11762 13.0413V16.5725ZM15 24.0151C14.6543 24.0151 14.3597 23.8933 14.1163 23.6498C13.8729 23.4062 13.7511 23.1115 13.7511 22.7656C13.7511 22.4197 13.8729 22.125 14.1163 21.8815C14.3597 21.6379 14.6543 21.5161 15 21.5161C15.3457 21.5161 15.6403 21.6379 15.8837 21.8815C16.1271 22.125 16.2488 22.4197 16.2488 22.7656C16.2488 23.1115 16.1271 23.4062 15.8837 23.6498C15.6403 23.8933 15.3457 24.0151 15 24.0151ZM9.35292 24.0151C9.00723 24.0151 8.71266 23.8933 8.46923 23.6498C8.22579 23.4062 8.10407 23.1115 8.10407 22.7656C8.10407 22.4197 8.22579 22.125 8.46923 21.8815C8.71266 21.6379 9.00723 21.5161 9.35292 21.5161C9.69862 21.5161 9.99318 21.6379 10.2366 21.8815C10.4801 22.125 10.6018 22.4197 10.6018 22.7656C10.6018 23.1115 10.4801 23.4062 10.2366 23.6498C9.99318 23.8933 9.69862 24.0151 9.35292 24.0151ZM20.6471 24.0151C20.3014 24.0151 20.0068 23.8933 19.7634 23.6498C19.5199 23.4062 19.3982 23.1115 19.3982 22.7656C19.3982 22.4197 19.5199 22.125 19.7634 21.8815C20.0068 21.6379 20.3014 21.5161 20.6471 21.5161C20.9928 21.5161 21.2873 21.6379 21.5308 21.8815C21.7742 22.125 21.8959 22.4197 21.8959 22.7656C21.8959 23.1115 21.7742 23.4062 21.5308 23.6498C21.2873 23.8933 20.9928 24.0151 20.6471 24.0151ZM15 29.5564C14.6543 29.5564 14.3597 29.4346 14.1163 29.191C13.8729 28.9475 13.7511 28.6527 13.7511 28.3069C13.7511 27.961 13.8729 27.6663 14.1163 27.4227C14.3597 27.1792 14.6543 27.0574 15 27.0574C15.3457 27.0574 15.6403 27.1792 15.8837 27.4227C16.1271 27.6663 16.2488 27.961 16.2488 28.3069C16.2488 28.6527 16.1271 28.9475 15.8837 29.191C15.6403 29.4346 15.3457 29.5564 15 29.5564ZM9.35292 29.5564C9.00723 29.5564 8.71266 29.4346 8.46923 29.191C8.22579 28.9475 8.10407 28.6527 8.10407 28.3069C8.10407 27.961 8.22579 27.6663 8.46923 27.4227C8.71266 27.1792 9.00723 27.0574 9.35292 27.0574C9.69862 27.0574 9.99318 27.1792 10.2366 27.4227C10.4801 27.6663 10.6018 27.961 10.6018 28.3069C10.6018 28.6527 10.4801 28.9475 10.2366 29.191C9.99318 29.4346 9.69862 29.5564 9.35292 29.5564ZM20.6471 29.5564C20.3014 29.5564 20.0068 29.4346 19.7634 29.191C19.5199 28.9475 19.3982 28.6527 19.3982 28.3069C19.3982 27.961 19.5199 27.6663 19.7634 27.4227C20.0068 27.1792 20.3014 27.0574 20.6471 27.0574C20.9928 27.0574 21.2873 27.1792 21.5308 27.4227C21.7742 27.6663 21.8959 27.961 21.8959 28.3069C21.8959 28.6527 21.7742 28.9475 21.5308 29.191C21.2873 29.4346 20.9928 29.5564 20.6471 29.5564Z" fill="#225DA7"/>
</svg>
