<svg width="20" height="20" viewBox="0 0 20 20" fill="none" xmlns="http://www.w3.org/2000/svg">
<path d="M3.70137 19C3.22595 19 2.82353 18.8352 2.49412 18.5056C2.16471 18.1761 2 17.7734 2 17.2978V4.69418C2 4.21852 2.16471 3.81589 2.49412 3.48632C2.82353 3.15674 3.22595 2.99195 3.70137 2.99195H5.00455V1.72432C5.00455 1.51789 5.07363 1.34556 5.2118 1.20733C5.34995 1.06911 5.52219 1 5.72853 1C5.93485 1 6.10709 1.06911 6.24526 1.20733C6.38341 1.34556 6.45248 1.51789 6.45248 1.72432V2.99195H13.5837V1.70622C13.5837 1.50582 13.6513 1.33801 13.7864 1.20281C13.9215 1.0676 14.0893 1 14.2896 1C14.4899 1 14.6576 1.0676 14.7927 1.20281C14.9279 1.33801 14.9955 1.50582 14.9955 1.70622V2.99195H16.2986C16.774 2.99195 17.1765 3.15674 17.5059 3.48632C17.8353 3.81589 18 4.21852 18 4.69418V17.2978C18 17.7734 17.8353 18.1761 17.5059 18.5056C17.1765 18.8352 16.774 19 16.2986 19H3.70137ZM3.70137 17.5875H16.2986C16.371 17.5875 16.4374 17.5574 16.4978 17.497C16.5581 17.4366 16.5883 17.3702 16.5883 17.2978V8.46079H3.41175V17.2978C3.41175 17.3702 3.44191 17.4366 3.50224 17.497C3.56258 17.5574 3.62896 17.5875 3.70137 17.5875ZM3.41175 7.04833H16.5883V4.69418C16.5883 4.62173 16.5581 4.55532 16.4978 4.49494C16.4374 4.43458 16.371 4.4044 16.2986 4.4044H3.70137C3.62896 4.4044 3.56258 4.43458 3.50224 4.49494C3.44191 4.55532 3.41175 4.62173 3.41175 4.69418V7.04833ZM10 12.0101C9.76954 12.0101 9.57316 11.9289 9.41087 11.7665C9.24858 11.6041 9.16743 11.4077 9.16743 11.1771C9.16743 10.9465 9.24858 10.75 9.41087 10.5877C9.57316 10.4253 9.76954 10.3441 10 10.3441C10.2305 10.3441 10.4268 10.4253 10.5891 10.5877C10.7514 10.75 10.8326 10.9465 10.8326 11.1771C10.8326 11.4077 10.7514 11.6041 10.5891 11.7665C10.4268 11.9289 10.2305 12.0101 10 12.0101ZM6.23528 12.0101C6.00482 12.0101 5.80844 11.9289 5.64615 11.7665C5.48386 11.6041 5.40272 11.4077 5.40272 11.1771C5.40272 10.9465 5.48386 10.75 5.64615 10.5877C5.80844 10.4253 6.00482 10.3441 6.23528 10.3441C6.46575 10.3441 6.66212 10.4253 6.82441 10.5877C6.9867 10.75 7.06785 10.9465 7.06785 11.1771C7.06785 11.4077 6.9867 11.6041 6.82441 11.7665C6.66212 11.9289 6.46575 12.0101 6.23528 12.0101ZM13.7647 12.0101C13.5343 12.0101 13.3379 11.9289 13.1756 11.7665C13.0133 11.6041 12.9321 11.4077 12.9321 11.1771C12.9321 10.9465 13.0133 10.75 13.1756 10.5877C13.3379 10.4253 13.5343 10.3441 13.7647 10.3441C13.9952 10.3441 14.1916 10.4253 14.3538 10.5877C14.5161 10.75 14.5973 10.9465 14.5973 11.1771C14.5973 11.4077 14.5161 11.6041 14.3538 11.7665C14.1916 11.9289 13.9952 12.0101 13.7647 12.0101ZM10 15.7042C9.76954 15.7042 9.57316 15.6231 9.41087 15.4607C9.24858 15.2983 9.16743 15.1018 9.16743 14.8713C9.16743 14.6407 9.24858 14.4442 9.41087 14.2818C9.57316 14.1194 9.76954 14.0382 10 14.0382C10.2305 14.0382 10.4268 14.1194 10.5891 14.2818C10.7514 14.4442 10.8326 14.6407 10.8326 14.8713C10.8326 15.1018 10.7514 15.2983 10.5891 15.4607C10.4268 15.6231 10.2305 15.7042 10 15.7042ZM6.23528 15.7042C6.00482 15.7042 5.80844 15.6231 5.64615 15.4607C5.48386 15.2983 5.40272 15.1018 5.40272 14.8713C5.40272 14.6407 5.48386 14.4442 5.64615 14.2818C5.80844 14.1194 6.00482 14.0382 6.23528 14.0382C6.46575 14.0382 6.66212 14.1194 6.82441 14.2818C6.9867 14.4442 7.06785 14.6407 7.06785 14.8713C7.06785 15.1018 6.9867 15.2983 6.82441 15.4607C6.66212 15.6231 6.46575 15.7042 6.23528 15.7042ZM13.7647 15.7042C13.5343 15.7042 13.3379 15.6231 13.1756 15.4607C13.0133 15.2983 12.9321 15.1018 12.9321 14.8713C12.9321 14.6407 13.0133 14.4442 13.1756 14.2818C13.3379 14.1194 13.5343 14.0382 13.7647 14.0382C13.9952 14.0382 14.1916 14.1194 14.3538 14.2818C14.5161 14.4442 14.5973 14.6407 14.5973 14.8713C14.5973 15.1018 14.5161 15.2983 14.3538 15.4607C14.1916 15.6231 13.9952 15.7042 13.7647 15.7042Z" fill="#225DA7"/>
</svg>
