<svg width="24" height="24" viewBox="0 0 24 24" fill="none" xmlns="http://www.w3.org/2000/svg">
<path d="M11.9959 16.8002C11.8064 16.8002 11.63 16.7695 11.4667 16.7082C11.3034 16.6469 11.1482 16.5416 11.001 16.3924L3.93393 9.22686C3.71619 9.00612 3.60481 8.72864 3.59977 8.39443C3.59472 8.06022 3.7061 7.77763 3.93393 7.54665C4.16173 7.31568 4.43791 7.2002 4.76247 7.2002C5.08703 7.2002 5.36321 7.31568 5.59101 7.54665L11.9959 14.0408L18.4008 7.54665C18.6185 7.32591 18.8922 7.21298 19.2218 7.20785C19.5514 7.20274 19.8301 7.31568 20.0579 7.54665C20.2857 7.77763 20.3996 8.05767 20.3996 8.38678C20.3996 8.71586 20.2857 8.99589 20.0579 9.22686L12.9908 16.3924C12.8436 16.5416 12.6884 16.6469 12.5251 16.7082C12.3618 16.7695 12.1854 16.8002 11.9959 16.8002Z" fill="#225DA7"/>
</svg>
