<svg width="30" height="30" viewBox="0 0 30 30" fill="none" xmlns="http://www.w3.org/2000/svg">
<path d="M4.06884 25.5C3.36241 25.5 2.75767 25.2345 2.25462 24.7035C1.75154 24.1725 1.5 23.5341 1.5 22.7884V18.6779C1.5 18.4318 1.56696 18.2135 1.70087 18.0231C1.83478 17.8327 2.01377 17.7029 2.23785 17.6337C2.86093 17.3279 3.36742 16.8739 3.75731 16.2715C4.14718 15.6692 4.34211 14.9952 4.34211 14.2494C4.34211 13.5036 4.14718 12.8298 3.75731 12.2278C3.36742 11.6259 2.86093 11.1721 2.23785 10.8663C2.01377 10.7971 1.83478 10.6673 1.70087 10.4769C1.56696 10.2865 1.5 10.0682 1.5 9.82206V5.71156C1.5 4.96588 1.75154 4.32754 2.25462 3.79654C2.75767 3.26551 3.36241 3 4.06884 3H25.9312C26.6376 3 27.2423 3.26551 27.7454 3.79654C28.2485 4.32754 28.5 4.96588 28.5 5.71156V9.82206C28.5 10.0682 28.433 10.2865 28.2991 10.4769C28.1652 10.6673 27.9862 10.7971 27.7621 10.8663C27.1391 11.1721 26.6326 11.6261 26.2427 12.2285C25.8528 12.8308 25.6579 13.5048 25.6579 14.2506C25.6579 14.9964 25.8528 15.6702 26.2427 16.2722C26.6326 16.8741 27.1391 17.3279 27.7621 17.6337C27.9862 17.7029 28.1652 17.8327 28.2991 18.0231C28.433 18.2135 28.5 18.4318 28.5 18.6779V22.7884C28.5 23.5341 28.2485 24.1725 27.7454 24.7035C27.2423 25.2345 26.6376 25.5 25.9312 25.5H4.06884ZM4.06884 23.25H25.9312C26.0587 23.25 26.1635 23.2068 26.2455 23.1202C26.3275 23.0337 26.3684 22.9231 26.3684 22.7884V19.425C25.4921 18.875 24.7994 18.1438 24.2902 17.2313C23.7809 16.3188 23.5263 15.325 23.5263 14.25C23.5263 13.175 23.7809 12.1812 24.2902 11.2687C24.7994 10.3562 25.4921 9.62498 26.3684 9.07498V5.71156C26.3684 5.57693 26.3275 5.46635 26.2455 5.3798C26.1635 5.29324 26.0587 5.24997 25.9312 5.24997H4.06884C3.9413 5.24997 3.83654 5.29324 3.75454 5.3798C3.67255 5.46635 3.63155 5.57693 3.63155 5.71156V9.07498C4.50787 9.62498 5.20063 10.3562 5.70984 11.2687C6.21906 12.1812 6.47366 13.175 6.47366 14.25C6.47366 15.325 6.21906 16.3188 5.70984 17.2313C5.20063 18.1438 4.50787 18.875 3.63155 19.425V22.7884C3.63155 22.9231 3.67255 23.0337 3.75454 23.1202C3.83654 23.2068 3.9413 23.25 4.06884 23.25ZM15.0005 21.2308C15.3026 21.2308 15.5557 21.1229 15.7597 20.9072C15.9637 20.6915 16.0658 20.4242 16.0658 20.1053C16.0658 19.7864 15.9636 19.5193 15.7592 19.3039C15.5549 19.0885 15.3016 18.9808 14.9995 18.9808C14.6974 18.9808 14.4443 19.0887 14.2403 19.3044C14.0363 19.5201 13.9342 19.7874 13.9342 20.1063C13.9342 20.4252 14.0364 20.6923 14.2408 20.9077C14.4451 21.1231 14.6984 21.2308 15.0005 21.2308ZM15.0005 15.375C15.3026 15.375 15.5557 15.2671 15.7597 15.0514C15.9637 14.8357 16.0658 14.5684 16.0658 14.2495C16.0658 13.9306 15.9636 13.6635 15.7592 13.4481C15.5549 13.2327 15.3016 13.125 14.9995 13.125C14.6974 13.125 14.4443 13.2329 14.2403 13.4486C14.0363 13.6643 13.9342 13.9316 13.9342 14.2505C13.9342 14.5694 14.0364 14.8365 14.2408 15.0519C14.4451 15.2673 14.6984 15.375 15.0005 15.375ZM15.0005 9.51921C15.3026 9.51921 15.5557 9.41135 15.7597 9.19562C15.9637 8.97989 16.0658 8.71259 16.0658 8.39372C16.0658 8.07484 15.9636 7.8077 15.7592 7.5923C15.5549 7.37693 15.3016 7.26924 14.9995 7.26924C14.6974 7.26924 14.4443 7.3771 14.2403 7.59283C14.0363 7.80853 13.9342 8.07583 13.9342 8.39473C13.9342 8.71361 14.0364 8.98075 14.2408 9.19615C14.4451 9.41152 14.6984 9.51921 15.0005 9.51921Z" fill="#225DA7"/>
</svg>
