<svg width="30" height="42" viewBox="0 0 30 42" fill="none" xmlns="http://www.w3.org/2000/svg">
<path d="M15 32.4108C17.7215 29.8466 19.8041 27.3871 21.2479 25.0322C22.6916 22.6773 23.4134 20.6147 23.4134 18.8446C23.4134 16.1753 22.6077 13.9809 20.9964 12.2614C19.385 10.5419 17.3862 9.68214 15 9.68214C12.6138 9.68214 10.615 10.5419 9.00361 12.2614C7.39227 13.9809 6.5866 16.1753 6.5866 18.8446C6.5866 20.6147 7.30844 22.6773 8.75214 25.0322C10.1959 27.3871 12.2785 29.8466 15 32.4108ZM15 34.5C14.7289 34.5 14.4578 34.4507 14.1868 34.3522C13.9157 34.2536 13.6705 34.1011 13.4511 33.8946C12.2027 32.6839 11.0346 31.437 9.94667 30.154C8.85877 28.8709 7.91309 27.5884 7.10965 26.3063C6.3062 25.0242 5.6704 23.7533 5.20226 22.4938C4.73409 21.2342 4.5 20.0178 4.5 18.8446C4.5 15.4657 5.53841 12.7302 7.61524 10.6381C9.69204 8.54605 12.1536 7.5 15 7.5C17.8464 7.5 20.308 8.54605 22.3848 10.6381C24.4616 12.7302 25.5 15.4657 25.5 18.8446C25.5 20.0178 25.2659 21.2318 24.7977 22.4867C24.3296 23.7416 23.696 25.0125 22.897 26.2993C22.0981 27.586 21.1546 28.8686 20.0667 30.1469C18.9788 31.4253 17.8107 32.6698 16.5623 33.8805C16.3461 34.087 16.1005 34.2419 15.8254 34.3452C15.5502 34.4484 15.2751 34.5 15 34.5Z" fill="#225DA7"/>
<path fill-rule="evenodd" clip-rule="evenodd" d="M15 20.25C16.2426 20.25 17.25 19.2426 17.25 18C17.25 16.7574 16.2426 15.75 15 15.75C13.7574 15.75 12.75 16.7574 12.75 18C12.75 19.2426 13.7574 20.25 15 20.25ZM15 22.5C17.4853 22.5 19.5 20.4853 19.5 18C19.5 15.5147 17.4853 13.5 15 13.5C12.5147 13.5 10.5 15.5147 10.5 18C10.5 20.4853 12.5147 22.5 15 22.5Z" fill="#225DA7"/>
</svg>
