<svg width="26" height="26" viewBox="0 0 26 26" fill="none" xmlns="http://www.w3.org/2000/svg">
<path fill-rule="evenodd" clip-rule="evenodd" d="M23.8097 24.7178C23.3309 25.1205 22.584 25.0884 22.1416 24.6459L1.31343 3.81775C0.871006 3.37533 0.900528 2.6902 1.37937 2.28747C1.85822 1.88474 2.60506 1.91692 3.04748 2.35935L23.8757 23.1875C24.3181 23.6299 24.2886 24.3151 23.8097 24.7178Z" fill="#225DA7"/>
<path fill-rule="evenodd" clip-rule="evenodd" d="M24.2604 2.03746C24.6632 2.5163 24.631 3.26314 24.1886 3.70556L3.36039 24.5337C2.91796 24.9762 2.23283 24.9466 1.8301 24.4678C1.42737 23.989 1.45955 23.2421 1.90198 22.7997L22.7301 1.97152C23.1726 1.52909 23.8577 1.55861 24.2604 2.03746Z" fill="#225DA7"/>
</svg>
