<svg width="26" height="26" viewBox="0 0 26 26" fill="none" xmlns="http://www.w3.org/2000/svg">
<path fill-rule="evenodd" clip-rule="evenodd" d="M0 12.5C0 11.9477 0.447715 11.5 1 11.5H25C25.5523 11.5 26 11.9477 26 12.5C26 13.0523 25.5523 13.5 25 13.5H1C0.447715 13.5 0 13.0523 0 12.5Z" fill="#225DA7"/>
<path fill-rule="evenodd" clip-rule="evenodd" d="M0 22C0 21.4477 0.447715 21 1 21H25C25.5523 21 26 21.4477 26 22C26 22.5523 25.5523 23 25 23H1C0.447715 23 0 22.5523 0 22Z" fill="#225DA7"/>
<path fill-rule="evenodd" clip-rule="evenodd" d="M0 3C0 2.44772 0.447715 2 1 2H25C25.5523 2 26 2.44772 26 3C26 3.55228 25.5523 4 25 4H1C0.447715 4 0 3.55228 0 3Z" fill="#225DA7"/>
</svg>
